<svg width="38" height="38" viewBox="0 0 38 38" fill="none" xmlns="http://www.w3.org/2000/svg">
<rect opacity="0.1" width="38" height="38" rx="6" fill="#0093DC"/>
<path d="M19 20C21.7614 20 24 17.7614 24 15C24 12.2386 21.7614 10 19 10C16.2386 10 14 12.2386 14 15C14 17.7614 16.2386 20 19 20Z" fill="#0093DC" stroke="#0093DC" stroke-width="2" stroke-linecap="round" stroke-linejoin="round"/>
<path d="M27 28C27 25.8783 26.1571 23.8434 24.6569 22.3431C23.1566 20.8429 21.1217 20 19 20C16.8783 20 14.8434 20.8429 13.3431 22.3431C11.8429 23.8434 11 25.8783 11 28" fill="#0093DC"/>
<path d="M27 28C27 25.8783 26.1571 23.8434 24.6569 22.3431C23.1566 20.8429 21.1217 20 19 20C16.8783 20 14.8434 20.8429 13.3431 22.3431C11.8429 23.8434 11 25.8783 11 28" stroke="#0093DC" stroke-width="2" stroke-linecap="round" stroke-linejoin="round"/>
<path d="M19 20C16.8783 20 14.8434 20.8429 13.3431 22.3431C11.8429 23.8434 11 25.8783 11 28H27C27 25.8783 26.1571 23.8434 24.6569 22.3431C23.1566 20.8429 21.1217 20 19 20Z" fill="#0093DC" stroke="#0093DC" stroke-width="2" stroke-linecap="round" stroke-linejoin="round"/>
</svg>
