<svg width="38" height="38" viewBox="0 0 38 38" fill="none" xmlns="http://www.w3.org/2000/svg">
<rect opacity="0.1" width="38" height="38" rx="6" fill="#0093DC"/>
<g clip-path="url(#clip0_35_980)">
<path d="M21.7 28.575L13.275 20.175C13.175 20.075 13.1043 19.9667 13.063 19.85C13.021 19.7333 13 19.6083 13 19.475C13 19.3417 13.021 19.2167 13.063 19.1C13.1043 18.9833 13.175 18.875 13.275 18.775L21.7 10.35C21.9333 10.1167 22.225 10 22.575 10C22.925 10 23.225 10.125 23.475 10.375C23.725 10.625 23.85 10.9167 23.85 11.25C23.85 11.5833 23.725 11.875 23.475 12.125L16.125 19.475L23.475 26.825C23.7083 27.0583 23.825 27.3457 23.825 27.687C23.825 28.029 23.7 28.325 23.45 28.575C23.2 28.825 22.9083 28.95 22.575 28.95C22.2417 28.95 21.95 28.825 21.7 28.575Z" fill="#0093DC"/>
</g>
<defs>
<clipPath id="clip0_35_980">
<rect width="24" height="24" fill="white" transform="translate(7 7)"/>
</clipPath>
</defs>
</svg>
