<svg width="38" height="38" viewBox="0 0 38 38" fill="none" xmlns="http://www.w3.org/2000/svg">
<rect x="0.5" y="0.5" width="37" height="37" rx="5.5" stroke="#DBDBDB"/>
<path opacity="0.6" fill-rule="evenodd" clip-rule="evenodd" d="M16.0241 9.783C16.0734 9.56094 16.197 9.36234 16.3745 9.21999C16.5519 9.07764 16.7726 9.00004 17.0001 9H21.0001C21.2276 9.00004 21.4482 9.07764 21.6257 9.21999C21.8031 9.36234 21.9267 9.56094 21.9761 9.783L22.4161 11.764C22.8161 11.954 23.1971 12.174 23.5561 12.424L25.4941 11.814C25.7111 11.7458 25.9449 11.7536 26.1569 11.8361C26.3688 11.9186 26.5463 12.071 26.6601 12.268L28.6601 15.732C28.7739 15.929 28.817 16.159 28.7825 16.3839C28.748 16.6088 28.6378 16.8152 28.4701 16.969L26.9731 18.342C27.0088 18.7799 27.0088 19.2201 26.9731 19.658L28.4701 21.031C28.6378 21.1848 28.748 21.3912 28.7825 21.6161C28.817 21.841 28.7739 22.071 28.6601 22.268L26.6601 25.732C26.5463 25.929 26.3688 26.0814 26.1569 26.1639C25.9449 26.2464 25.7111 26.2542 25.4941 26.186L23.5571 25.576C23.1971 25.826 22.8161 26.046 22.4171 26.236L21.9771 28.216C21.9279 28.4384 21.8042 28.6374 21.6265 28.7799C21.4489 28.9225 21.2279 29.0001 21.0001 29H17.0001C16.7726 29 16.5519 28.9224 16.3745 28.78C16.197 28.6377 16.0734 28.4391 16.0241 28.217L15.5841 26.236C15.1841 26.046 14.8031 25.826 14.4441 25.576L12.5061 26.186C12.2891 26.2542 12.0553 26.2464 11.8433 26.1639C11.6313 26.0814 11.4538 25.929 11.3401 25.732L9.34008 22.268C9.22629 22.071 9.1831 21.841 9.21765 21.6161C9.25219 21.3912 9.3624 21.1848 9.53008 21.031L11.0271 19.658C10.9914 19.2201 10.9914 18.7799 11.0271 18.342L9.53008 16.97C9.3624 16.8162 9.25219 16.6098 9.21765 16.3849C9.1831 16.16 9.22629 15.93 9.34008 15.733L11.3401 12.269C11.4538 12.072 11.6313 11.9196 11.8433 11.8371C12.0553 11.7546 12.2891 11.7468 12.5061 11.815L14.4431 12.425C14.8031 12.175 15.1841 11.955 15.5831 11.765L16.0231 9.785L16.0241 9.783ZM19.0001 22C19.7957 22 20.5588 21.6839 21.1214 21.1213C21.684 20.5587 22.0001 19.7956 22.0001 19C22.0001 18.2044 21.684 17.4413 21.1214 16.8787C20.5588 16.3161 19.7957 16 19.0001 16C18.2044 16 17.4414 16.3161 16.8788 16.8787C16.3161 17.4413 16.0001 18.2044 16.0001 19C16.0001 19.7956 16.3161 20.5587 16.8788 21.1213C17.4414 21.6839 18.2044 22 19.0001 22V22Z" fill="#868686"/>
</svg>
