<svg width="14" height="14" viewBox="0 0 14 14" fill="none" xmlns="http://www.w3.org/2000/svg">
<path d="M11.025 11.8417L7.75833 8.575C7.46667 8.80833 7.13125 8.99305 6.75208 9.12917C6.37292 9.26528 5.96944 9.33333 5.54167 9.33333C4.48194 9.33333 3.58517 8.96642 2.85133 8.23258C2.11711 7.49836 1.75 6.60139 1.75 5.54167C1.75 4.48194 2.11711 3.58497 2.85133 2.85075C3.58517 2.11692 4.48194 1.75 5.54167 1.75C6.60139 1.75 7.49836 2.11692 8.23258 2.85075C8.96642 3.58497 9.33333 4.48194 9.33333 5.54167C9.33333 5.96944 9.26528 6.37292 9.12917 6.75208C8.99305 7.13125 8.80833 7.46667 8.575 7.75833L11.8562 11.0396C11.9632 11.1465 12.0167 11.2778 12.0167 11.4333C12.0167 11.5889 11.9583 11.725 11.8417 11.8417C11.7347 11.9486 11.5986 12.0021 11.4333 12.0021C11.2681 12.0021 11.1319 11.9486 11.025 11.8417ZM5.54167 8.16667C6.27083 8.16667 6.89072 7.91156 7.40133 7.40133C7.91156 6.89072 8.16667 6.27083 8.16667 5.54167C8.16667 4.8125 7.91156 4.19261 7.40133 3.682C6.89072 3.17178 6.27083 2.91667 5.54167 2.91667C4.8125 2.91667 4.19261 3.17178 3.682 3.682C3.17178 4.19261 2.91667 4.8125 2.91667 5.54167C2.91667 6.27083 3.17178 6.89072 3.682 7.40133C4.19261 7.91156 4.8125 8.16667 5.54167 8.16667Z" fill="#777777"/>
</svg>
