<svg width="430" height="128" viewBox="0 0 430 128" fill="none" xmlns="http://www.w3.org/2000/svg">
<rect x="166" y="46" width="97" height="36" rx="18" fill="#E5F4FC"/>
<rect x="110" y="92" width="97" height="36" rx="18" fill="#F7F7F7"/>
<rect x="110" width="97" height="36" rx="18" fill="#F7F7F7"/>
<rect opacity="0.1" x="273" y="46" width="97" height="36" rx="18" fill="#ABABAF"/>
<rect opacity="0.1" x="217" y="92" width="97" height="36" rx="18" fill="#ABABAF"/>
<rect opacity="0.1" x="217" width="97" height="36" rx="18" fill="#ABABAF"/>
<rect x="-48" y="46" width="97" height="36" rx="18" fill="#F7F7F7"/>
<rect opacity="0.1" x="380" y="46" width="97" height="36" rx="18" fill="#ABABAF"/>
<rect opacity="0.1" x="324" y="92" width="97" height="36" rx="18" fill="#ABABAF"/>
<rect opacity="0.1" x="324" width="97" height="36" rx="18" fill="#ABABAF"/>
<rect x="59" y="46" width="97" height="36" rx="18" fill="#F7F7F7"/>
<rect x="3" y="92" width="97" height="36" rx="18" fill="#F7F7F7"/>
<rect x="3" width="97" height="36" rx="18" fill="#F7F7F7"/>
<path d="M133.343 114H134.711V107.388H133.343V114ZM134.039 106.512C134.519 106.512 134.903 106.128 134.903 105.636C134.903 105.144 134.519 104.76 134.039 104.76C133.547 104.76 133.163 105.144 133.163 105.636C133.163 106.128 133.547 106.512 134.039 106.512ZM141.199 114H142.555V110.1C142.555 108.252 141.391 107.28 139.843 107.28C139.051 107.28 138.319 107.604 137.875 108.144V107.388H136.507V114H137.875V110.304C137.875 109.092 138.535 108.468 139.543 108.468C140.539 108.468 141.199 109.092 141.199 110.304V114ZM143.844 110.688C143.844 112.764 145.188 114.108 147.084 114.108C148.704 114.108 149.76 113.208 150.132 111.912H148.656C148.404 112.596 147.9 112.956 147.084 112.956C145.98 112.956 145.248 112.14 145.248 110.688C145.248 109.248 145.98 108.432 147.084 108.432C147.9 108.432 148.428 108.84 148.656 109.476H150.132C149.76 108.084 148.704 107.28 147.084 107.28C145.188 107.28 143.844 108.624 143.844 110.688ZM152.864 110.52C152.864 109.116 153.488 108.696 154.496 108.696H154.844V107.28C153.908 107.28 153.248 107.688 152.864 108.348V107.388H151.496V114H152.864V110.52ZM158.885 108.432C159.905 108.432 160.709 109.08 160.733 110.1H157.073C157.217 109.056 157.961 108.432 158.885 108.432ZM161.981 112.032H160.505C160.253 112.548 159.785 112.956 158.945 112.956C157.937 112.956 157.157 112.296 157.061 111.204H162.113C162.149 110.976 162.161 110.76 162.161 110.532C162.161 108.588 160.829 107.28 158.945 107.28C156.989 107.28 155.645 108.612 155.645 110.688C155.645 112.764 157.049 114.108 158.945 114.108C160.565 114.108 161.609 113.184 161.981 112.032ZM163.051 110.664C163.051 112.704 164.431 114.108 166.147 114.108C167.251 114.108 168.043 113.58 168.463 113.016V114H169.843V107.388H168.463V108.348C168.055 107.808 167.287 107.28 166.171 107.28C164.431 107.28 163.051 108.624 163.051 110.664ZM168.463 110.688C168.463 112.116 167.491 112.92 166.459 112.92C165.439 112.92 164.455 112.092 164.455 110.664C164.455 109.236 165.439 108.468 166.459 108.468C167.491 108.468 168.463 109.272 168.463 110.688ZM176.572 112.152C176.5 109.764 172.768 110.508 172.768 109.176C172.768 108.732 173.152 108.432 173.884 108.432C174.628 108.432 175.072 108.828 175.12 109.404H176.488C176.416 108.084 175.432 107.28 173.932 107.28C172.372 107.28 171.388 108.132 171.388 109.188C171.388 111.612 175.228 110.868 175.228 112.164C175.228 112.62 174.808 112.956 174.016 112.956C173.26 112.956 172.744 112.512 172.696 111.972H171.28C171.34 113.172 172.456 114.108 174.04 114.108C175.6 114.108 176.572 113.268 176.572 112.152ZM180.834 108.432C181.854 108.432 182.658 109.08 182.682 110.1H179.022C179.166 109.056 179.91 108.432 180.834 108.432ZM183.93 112.032H182.454C182.202 112.548 181.734 112.956 180.894 112.956C179.886 112.956 179.106 112.296 179.01 111.204H184.062C184.098 110.976 184.11 110.76 184.11 110.532C184.11 108.588 182.778 107.28 180.894 107.28C178.938 107.28 177.594 108.612 177.594 110.688C177.594 112.764 178.998 114.108 180.894 114.108C182.514 114.108 183.558 113.184 183.93 112.032Z" fill="#ABABAF"/>
<path d="M144.978 22H146.346V18.304C146.346 17.092 147.006 16.468 148.014 16.468C149.01 16.468 149.67 17.092 149.67 18.304V22H151.026V18.1C151.026 16.252 149.874 15.28 148.398 15.28C147.546 15.28 146.802 15.604 146.346 16.156V13.12H144.978V22ZM159.071 18.688C159.071 16.612 157.583 15.28 155.699 15.28C153.815 15.28 152.327 16.612 152.327 18.688C152.327 20.764 153.755 22.108 155.639 22.108C157.535 22.108 159.071 20.764 159.071 18.688ZM153.719 18.688C153.719 17.188 154.643 16.468 155.675 16.468C156.695 16.468 157.667 17.188 157.667 18.688C157.667 20.188 156.659 20.92 155.639 20.92C154.607 20.92 153.719 20.188 153.719 18.688ZM166.411 15.388H165.043V19.072C165.043 20.284 164.383 20.908 163.375 20.908C162.379 20.908 161.719 20.284 161.719 19.072V15.388H160.363V19.276C160.363 21.124 161.539 22.096 163.087 22.096C163.867 22.096 164.611 21.772 165.043 21.208V22H166.411V15.388ZM169.584 18.52C169.584 17.116 170.208 16.696 171.216 16.696H171.564V15.28C170.628 15.28 169.968 15.688 169.584 16.348V15.388H168.216V22H169.584V18.52Z" fill="#ABABAF"/>
<path d="M302.252 68H303.632V62.504H304.856V61.388H303.632V60.92C303.632 60.164 303.92 59.876 304.76 59.876V58.736C303.032 58.736 302.252 59.396 302.252 60.92V61.388H301.472V62.504H302.252V68ZM306.068 68H307.436V61.388H306.068V68ZM306.764 60.512C307.244 60.512 307.628 60.128 307.628 59.636C307.628 59.144 307.244 58.76 306.764 58.76C306.272 58.76 305.888 59.144 305.888 59.636C305.888 60.128 306.272 60.512 306.764 60.512ZM309.448 66.164C309.448 67.508 310.18 68 311.356 68H312.436V66.86H311.596C311.02 66.86 310.828 66.656 310.828 66.164V62.504H312.436V61.388H310.828V59.744H309.448V61.388H308.668V62.504H309.448V66.164ZM318.389 68H319.745V64.1C319.745 62.252 318.581 61.28 317.033 61.28C316.241 61.28 315.509 61.604 315.065 62.144V61.388H313.697V68H315.065V64.304C315.065 63.092 315.725 62.468 316.733 62.468C317.729 62.468 318.389 63.092 318.389 64.304V68ZM324.274 62.432C325.294 62.432 326.098 63.08 326.122 64.1H322.462C322.606 63.056 323.35 62.432 324.274 62.432ZM327.37 66.032H325.894C325.642 66.548 325.174 66.956 324.334 66.956C323.326 66.956 322.546 66.296 322.45 65.204H327.502C327.538 64.976 327.55 64.76 327.55 64.532C327.55 62.588 326.218 61.28 324.334 61.28C322.378 61.28 321.034 62.612 321.034 64.688C321.034 66.764 322.438 68.108 324.334 68.108C325.954 68.108 326.998 67.184 327.37 66.032ZM333.828 66.152C333.756 63.764 330.024 64.508 330.024 63.176C330.024 62.732 330.408 62.432 331.14 62.432C331.884 62.432 332.328 62.828 332.376 63.404H333.744C333.672 62.084 332.688 61.28 331.188 61.28C329.628 61.28 328.644 62.132 328.644 63.188C328.644 65.612 332.484 64.868 332.484 66.164C332.484 66.62 332.064 66.956 331.272 66.956C330.516 66.956 330 66.512 329.952 65.972H328.536C328.596 67.172 329.712 68.108 331.296 68.108C332.856 68.108 333.828 67.268 333.828 66.152ZM340.238 66.152C340.166 63.764 336.434 64.508 336.434 63.176C336.434 62.732 336.818 62.432 337.55 62.432C338.294 62.432 338.738 62.828 338.786 63.404H340.154C340.082 62.084 339.098 61.28 337.598 61.28C336.038 61.28 335.054 62.132 335.054 63.188C335.054 65.612 338.894 64.868 338.894 66.164C338.894 66.62 338.474 66.956 337.682 66.956C336.926 66.956 336.41 66.512 336.362 65.972H334.946C335.006 67.172 336.122 68.108 337.706 68.108C339.266 68.108 340.238 67.268 340.238 66.152Z" fill="#ABABAF"/>
<path d="M252.495 110.664C252.495 112.704 253.875 114.108 255.615 114.108C256.695 114.108 257.487 113.604 257.907 113.004V114H259.287V105.12H257.907V108.312C257.403 107.688 256.491 107.28 255.627 107.28C253.875 107.28 252.495 108.624 252.495 110.664ZM257.907 110.688C257.907 112.116 256.935 112.92 255.903 112.92C254.883 112.92 253.899 112.092 253.899 110.664C253.899 109.236 254.883 108.468 255.903 108.468C256.935 108.468 257.907 109.272 257.907 110.688ZM261.084 114H262.452V107.388H261.084V114ZM261.78 106.512C262.26 106.512 262.644 106.128 262.644 105.636C262.644 105.144 262.26 104.76 261.78 104.76C261.288 104.76 260.904 105.144 260.904 105.636C260.904 106.128 261.288 106.512 261.78 106.512ZM263.792 110.688C263.792 112.764 265.136 114.108 267.032 114.108C268.652 114.108 269.708 113.208 270.08 111.912H268.604C268.352 112.596 267.848 112.956 267.032 112.956C265.928 112.956 265.196 112.14 265.196 110.688C265.196 109.248 265.928 108.432 267.032 108.432C267.848 108.432 268.376 108.84 268.604 109.476H270.08C269.708 108.084 268.652 107.28 267.032 107.28C265.136 107.28 263.792 108.624 263.792 110.688ZM274.227 108.432C275.247 108.432 276.051 109.08 276.075 110.1H272.415C272.559 109.056 273.303 108.432 274.227 108.432ZM277.323 112.032H275.847C275.595 112.548 275.127 112.956 274.287 112.956C273.279 112.956 272.499 112.296 272.403 111.204H277.455C277.491 110.976 277.503 110.76 277.503 110.532C277.503 108.588 276.171 107.28 274.287 107.28C272.331 107.28 270.987 108.612 270.987 110.688C270.987 112.764 272.391 114.108 274.287 114.108C275.907 114.108 276.951 113.184 277.323 112.032Z" fill="#ABABAF"/>
<path d="M255.709 14.512C256.189 14.512 256.573 14.128 256.573 13.636C256.573 13.144 256.189 12.76 255.709 12.76C255.217 12.76 254.833 13.144 254.833 13.636C254.833 14.128 255.217 14.512 255.709 14.512ZM255.013 15.388V23.296C255.013 23.788 254.821 23.992 254.245 23.992H253.777V25.144H254.485C255.661 25.144 256.381 24.64 256.381 23.296V15.388H255.013ZM264.477 18.688C264.477 16.612 262.989 15.28 261.105 15.28C259.221 15.28 257.733 16.612 257.733 18.688C257.733 20.764 259.161 22.108 261.045 22.108C262.941 22.108 264.477 20.764 264.477 18.688ZM259.125 18.688C259.125 17.188 260.049 16.468 261.081 16.468C262.101 16.468 263.073 17.188 263.073 18.688C263.073 20.188 262.065 20.92 261.045 20.92C260.013 20.92 259.125 20.188 259.125 18.688ZM265.83 22H267.198V15.388H265.83V22ZM266.526 14.512C267.006 14.512 267.39 14.128 267.39 13.636C267.39 13.144 267.006 12.76 266.526 12.76C266.034 12.76 265.65 13.144 265.65 13.636C265.65 14.128 266.034 14.512 266.526 14.512ZM273.686 22H275.042V18.1C275.042 16.252 273.878 15.28 272.33 15.28C271.538 15.28 270.806 15.604 270.362 16.144V15.388H268.994V22H270.362V18.304C270.362 17.092 271.022 16.468 272.03 16.468C273.026 16.468 273.686 17.092 273.686 18.304V22Z" fill="#ABABAF"/>
<path d="M-13.0219 68H-11.6539V64.304C-11.6539 63.092 -10.9939 62.468 -9.98587 62.468C-8.98987 62.468 -8.32987 63.092 -8.32987 64.304V68H-6.97387V64.1C-6.97387 62.252 -8.12587 61.28 -9.60187 61.28C-10.4539 61.28 -11.1979 61.604 -11.6539 62.156V59.12H-13.0219V68ZM1.07109 64.688C1.07109 62.612 -0.416906 61.28 -2.30091 61.28C-4.18491 61.28 -5.67291 62.612 -5.67291 64.688C-5.67291 66.764 -4.24491 68.108 -2.36091 68.108C-0.464906 68.108 1.07109 66.764 1.07109 64.688ZM-4.28091 64.688C-4.28091 63.188 -3.35691 62.468 -2.32491 62.468C-1.30491 62.468 -0.332906 63.188 -0.332906 64.688C-0.332906 66.188 -1.34091 66.92 -2.36091 66.92C-3.39291 66.92 -4.28091 66.188 -4.28091 64.688ZM8.41144 61.388H7.04344V65.072C7.04344 66.284 6.38344 66.908 5.37544 66.908C4.37944 66.908 3.71944 66.284 3.71944 65.072V61.388H2.36344V65.276C2.36344 67.124 3.53944 68.096 5.08744 68.096C5.86744 68.096 6.61144 67.772 7.04344 67.208V68H8.41144V61.388ZM11.5844 64.52C11.5844 63.116 12.2084 62.696 13.2164 62.696H13.5644V61.28C12.6284 61.28 11.9684 61.688 11.5844 62.348V61.388H10.2164V68H11.5844V64.52Z" fill="#ABABAF"/>
<path d="M402.023 68H403.391V65.156L405.839 68H407.687L404.639 64.7L407.687 61.388H405.791L403.391 64.28V59.12H402.023V68ZM408.668 68H410.036V61.388H408.668V68ZM409.364 60.512C409.844 60.512 410.228 60.128 410.228 59.636C410.228 59.144 409.844 58.76 409.364 58.76C408.872 58.76 408.488 59.144 408.488 59.636C408.488 60.128 408.872 60.512 409.364 60.512ZM416.524 68H417.88V64.1C417.88 62.252 416.716 61.28 415.168 61.28C414.376 61.28 413.644 61.604 413.2 62.144V61.388H411.832V68H413.2V64.304C413.2 63.092 413.86 62.468 414.868 62.468C415.864 62.468 416.524 63.092 416.524 64.304V68ZM419.169 64.664C419.169 66.704 420.549 68.108 422.289 68.108C423.369 68.108 424.161 67.604 424.581 67.004V68H425.961V59.12H424.581V62.312C424.077 61.688 423.165 61.28 422.301 61.28C420.549 61.28 419.169 62.624 419.169 64.664ZM424.581 64.688C424.581 66.116 423.609 66.92 422.577 66.92C421.557 66.92 420.573 66.092 420.573 64.664C420.573 63.236 421.557 62.468 422.577 62.468C423.609 62.468 424.581 63.272 424.581 64.688ZM432.449 68H433.805V64.1C433.805 62.252 432.641 61.28 431.093 61.28C430.301 61.28 429.569 61.604 429.125 62.144V61.388H427.757V68H429.125V64.304C429.125 63.092 429.785 62.468 430.793 62.468C431.789 62.468 432.449 63.092 432.449 64.304V68ZM438.334 62.432C439.354 62.432 440.158 63.08 440.182 64.1H436.522C436.666 63.056 437.41 62.432 438.334 62.432ZM441.43 66.032H439.954C439.702 66.548 439.234 66.956 438.394 66.956C437.386 66.956 436.606 66.296 436.51 65.204H441.562C441.598 64.976 441.61 64.76 441.61 64.532C441.61 62.588 440.278 61.28 438.394 61.28C436.438 61.28 435.094 62.612 435.094 64.688C435.094 66.764 436.498 68.108 438.394 68.108C440.014 68.108 441.058 67.184 441.43 66.032ZM447.889 66.152C447.817 63.764 444.085 64.508 444.085 63.176C444.085 62.732 444.469 62.432 445.201 62.432C445.945 62.432 446.389 62.828 446.437 63.404H447.805C447.733 62.084 446.749 61.28 445.249 61.28C443.689 61.28 442.705 62.132 442.705 63.188C442.705 65.612 446.545 64.868 446.545 66.164C446.545 66.62 446.125 66.956 445.333 66.956C444.577 66.956 444.061 66.512 444.013 65.972H442.597C442.657 67.172 443.773 68.108 445.357 68.108C446.917 68.108 447.889 67.268 447.889 66.152ZM454.299 66.152C454.227 63.764 450.495 64.508 450.495 63.176C450.495 62.732 450.879 62.432 451.611 62.432C452.355 62.432 452.799 62.828 452.847 63.404H454.215C454.143 62.084 453.159 61.28 451.659 61.28C450.099 61.28 449.115 62.132 449.115 63.188C449.115 65.612 452.955 64.868 452.955 66.164C452.955 66.62 452.535 66.956 451.743 66.956C450.987 66.956 450.471 66.512 450.423 65.972H449.007C449.067 67.172 450.183 68.108 451.767 68.108C453.327 68.108 454.299 67.268 454.299 66.152Z" fill="#ABABAF"/>
<path d="M354.237 112.164C354.237 113.508 354.969 114 356.145 114H357.225V112.86H356.385C355.809 112.86 355.617 112.656 355.617 112.164V108.504H357.225V107.388H355.617V105.744H354.237V107.388H353.457V108.504H354.237V112.164ZM358.486 114H359.854V110.304C359.854 109.092 360.514 108.468 361.522 108.468C362.518 108.468 363.178 109.092 363.178 110.304V114H364.534V110.1C364.534 108.252 363.382 107.28 361.906 107.28C361.054 107.28 360.31 107.604 359.854 108.156V105.12H358.486V114ZM366.279 114H367.647V107.388H366.279V114ZM366.975 106.512C367.455 106.512 367.839 106.128 367.839 105.636C367.839 105.144 367.455 104.76 366.975 104.76C366.483 104.76 366.099 105.144 366.099 105.636C366.099 106.128 366.483 106.512 366.975 106.512ZM374.135 114H375.491V110.1C375.491 108.252 374.327 107.28 372.779 107.28C371.987 107.28 371.255 107.604 370.811 108.144V107.388H369.443V114H370.811V110.304C370.811 109.092 371.471 108.468 372.479 108.468C373.475 108.468 374.135 109.092 374.135 110.304V114ZM376.78 110.664C376.78 112.704 378.16 114.108 379.9 114.108C380.98 114.108 381.772 113.568 382.192 113.004V114.108C382.192 115.428 381.4 116.076 380.344 116.076C379.396 116.076 378.664 115.608 378.46 114.924H377.104C377.272 116.388 378.58 117.264 380.344 117.264C382.408 117.264 383.572 115.908 383.572 114.108V107.388H382.192V108.348C381.784 107.784 380.98 107.28 379.9 107.28C378.16 107.28 376.78 108.624 376.78 110.664ZM382.192 110.688C382.192 112.116 381.22 112.92 380.188 112.92C379.168 112.92 378.184 112.092 378.184 110.664C378.184 109.236 379.168 108.468 380.188 108.468C381.22 108.468 382.192 109.272 382.192 110.688ZM390.301 112.152C390.229 109.764 386.497 110.508 386.497 109.176C386.497 108.732 386.881 108.432 387.613 108.432C388.357 108.432 388.801 108.828 388.849 109.404H390.217C390.145 108.084 389.161 107.28 387.661 107.28C386.101 107.28 385.117 108.132 385.117 109.188C385.117 111.612 388.957 110.868 388.957 112.164C388.957 112.62 388.537 112.956 387.745 112.956C386.989 112.956 386.473 112.512 386.425 111.972H385.009C385.069 113.172 386.185 114.108 387.769 114.108C389.329 114.108 390.301 113.268 390.301 112.152Z" fill="#ABABAF"/>
<path d="M363.381 16.372V13.12H362.013V22H363.381V21.04C363.813 21.616 364.593 22.108 365.685 22.108C367.425 22.108 368.793 20.704 368.793 18.664C368.793 16.624 367.437 15.28 365.685 15.28C364.641 15.28 363.813 15.772 363.381 16.372ZM367.401 18.664C367.401 20.092 366.417 20.92 365.385 20.92C364.365 20.92 363.381 20.116 363.381 18.688C363.381 17.272 364.365 16.468 365.385 16.468C366.417 16.468 367.401 17.236 367.401 18.664ZM376.446 18.688C376.446 16.612 374.958 15.28 373.074 15.28C371.19 15.28 369.702 16.612 369.702 18.688C369.702 20.764 371.13 22.108 373.014 22.108C374.91 22.108 376.446 20.764 376.446 18.688ZM371.094 18.688C371.094 17.188 372.018 16.468 373.05 16.468C374.07 16.468 375.042 17.188 375.042 18.688C375.042 20.188 374.034 20.92 373.014 20.92C371.982 20.92 371.094 20.188 371.094 18.688ZM381.218 22H382.766L380.63 18.652L382.766 15.388H381.338L379.994 17.632L378.566 15.388H377.018L379.154 18.748L377.018 22H378.446L379.79 19.756L381.218 22Z" fill="#ABABAF"/>
<path d="M96.1883 66.164C96.1883 67.508 96.9203 68 98.0963 68H99.1763V66.86H98.3363C97.7603 66.86 97.5683 66.656 97.5683 66.164V62.504H99.1763V61.388H97.5683V59.744H96.1883V61.388H95.4083V62.504H96.1883V66.164ZM100.437 68H101.805V64.304C101.805 63.092 102.465 62.468 103.473 62.468C104.469 62.468 105.129 63.092 105.129 64.304V68H106.485V64.1C106.485 62.252 105.333 61.28 103.857 61.28C103.005 61.28 102.261 61.604 101.805 62.156V59.12H100.437V68ZM107.774 64.664C107.774 66.704 109.154 68.108 110.87 68.108C111.974 68.108 112.766 67.58 113.186 67.016V68H114.566V61.388H113.186V62.348C112.778 61.808 112.01 61.28 110.894 61.28C109.154 61.28 107.774 62.624 107.774 64.664ZM113.186 64.688C113.186 66.116 112.214 66.92 111.182 66.92C110.162 66.92 109.178 66.092 109.178 64.664C109.178 63.236 110.162 62.468 111.182 62.468C112.214 62.468 113.186 63.272 113.186 64.688ZM116.579 66.164C116.579 67.508 117.311 68 118.487 68H119.567V66.86H118.727C118.151 66.86 117.959 66.656 117.959 66.164V62.504H119.567V61.388H117.959V59.744H116.579V61.388H115.799V62.504H116.579V66.164Z" fill="#ABABAF"/>
<path d="M29.0367 114H30.4047V110.304C30.4047 109.092 31.0647 108.468 32.0727 108.468C33.0687 108.468 33.7287 109.092 33.7287 110.304V114H35.0847V110.1C35.0847 108.252 33.9327 107.28 32.4567 107.28C31.6047 107.28 30.8607 107.604 30.4047 108.156V105.12H29.0367V114ZM36.3737 110.664C36.3737 112.704 37.7537 114.108 39.4697 114.108C40.5737 114.108 41.3657 113.58 41.7857 113.016V114H43.1657V107.388H41.7857V108.348C41.3777 107.808 40.6097 107.28 39.4937 107.28C37.7537 107.28 36.3737 108.624 36.3737 110.664ZM41.7857 110.688C41.7857 112.116 40.8137 112.92 39.7817 112.92C38.7617 112.92 37.7777 112.092 37.7777 110.664C37.7777 109.236 38.7617 108.468 39.7817 108.468C40.8137 108.468 41.7857 109.272 41.7857 110.688ZM46.3305 110.52C46.3305 109.116 46.9545 108.696 47.9625 108.696H48.3105V107.28C47.3745 107.28 46.7145 107.688 46.3305 108.348V107.388H44.9625V114H46.3305V110.52ZM48.788 107.388L51.296 114H52.928L55.448 107.388H53.996L52.124 112.776L50.252 107.388H48.788ZM59.266 108.432C60.286 108.432 61.09 109.08 61.114 110.1H57.454C57.598 109.056 58.342 108.432 59.266 108.432ZM62.362 112.032H60.886C60.634 112.548 60.166 112.956 59.326 112.956C58.318 112.956 57.538 112.296 57.442 111.204H62.494C62.53 110.976 62.542 110.76 62.542 110.532C62.542 108.588 61.21 107.28 59.326 107.28C57.37 107.28 56.026 108.612 56.026 110.688C56.026 112.764 57.43 114.108 59.326 114.108C60.946 114.108 61.99 113.184 62.362 112.032ZM68.8203 112.152C68.7483 109.764 65.0163 110.508 65.0163 109.176C65.0163 108.732 65.4003 108.432 66.1323 108.432C66.8763 108.432 67.3203 108.828 67.3683 109.404H68.7363C68.6643 108.084 67.6803 107.28 66.1803 107.28C64.6203 107.28 63.6363 108.132 63.6363 109.188C63.6363 111.612 67.4763 110.868 67.4763 112.164C67.4763 112.62 67.0563 112.956 66.2643 112.956C65.5083 112.956 64.9923 112.512 64.9443 111.972H63.5283C63.5883 113.172 64.7043 114.108 66.2883 114.108C67.8483 114.108 68.8203 113.268 68.8203 112.152ZM70.5144 112.164C70.5144 113.508 71.2464 114 72.4224 114H73.5024V112.86H72.6624C72.0864 112.86 71.8944 112.656 71.8944 112.164V108.504H73.5024V107.388H71.8944V105.744H70.5144V107.388H69.7344V108.504H70.5144V112.164Z" fill="#ABABAF"/>
<path d="M25.6862 18.664C25.6862 20.704 27.0662 22.108 28.7822 22.108C29.8862 22.108 30.6782 21.58 31.0982 21.016V22H32.4782V15.388H31.0982V16.348C30.6902 15.808 29.9222 15.28 28.8062 15.28C27.0662 15.28 25.6862 16.624 25.6862 18.664ZM31.0982 18.688C31.0982 20.116 30.1262 20.92 29.0942 20.92C28.0742 20.92 27.0902 20.092 27.0902 18.664C27.0902 17.236 28.0742 16.468 29.0942 16.468C30.1262 16.468 31.0982 17.272 31.0982 18.688ZM38.967 22H40.323V18.1C40.323 16.252 39.159 15.28 37.611 15.28C36.819 15.28 36.087 15.604 35.643 16.144V15.388H34.275V22H35.643V18.304C35.643 17.092 36.303 16.468 37.311 16.468C38.307 16.468 38.967 17.092 38.967 18.304V22ZM42.284 20.164C42.284 21.508 43.016 22 44.192 22H45.272V20.86H44.432C43.856 20.86 43.664 20.656 43.664 20.164V16.504H45.272V15.388H43.664V13.744H42.284V15.388H41.504V16.504H42.284V20.164ZM49.3168 16.432C50.3368 16.432 51.1408 17.08 51.1648 18.1H47.5048C47.6488 17.056 48.3928 16.432 49.3168 16.432ZM52.4128 20.032H50.9368C50.6848 20.548 50.2168 20.956 49.3768 20.956C48.3688 20.956 47.5888 20.296 47.4928 19.204H52.5448C52.5808 18.976 52.5928 18.76 52.5928 18.532C52.5928 16.588 51.2608 15.28 49.3768 15.28C47.4208 15.28 46.0768 16.612 46.0768 18.688C46.0768 20.764 47.4808 22.108 49.3768 22.108C50.9968 22.108 52.0408 21.184 52.4128 20.032ZM58.6311 22H59.9871V18.1C59.9871 16.252 58.8231 15.28 57.2751 15.28C56.4831 15.28 55.7511 15.604 55.3071 16.144V15.388H53.9391V22H55.3071V18.304C55.3071 17.092 55.9671 16.468 56.9751 16.468C57.9711 16.468 58.6311 17.092 58.6311 18.304V22ZM66.424 22H67.78V18.1C67.78 16.252 66.616 15.28 65.068 15.28C64.276 15.28 63.544 15.604 63.1 16.144V15.388H61.732V22H63.1V18.304C63.1 17.092 63.76 16.468 64.768 16.468C65.764 16.468 66.424 17.092 66.424 18.304V22ZM69.069 18.664C69.069 20.704 70.449 22.108 72.165 22.108C73.269 22.108 74.061 21.58 74.481 21.016V22H75.861V15.388H74.481V16.348C74.073 15.808 73.305 15.28 72.189 15.28C70.449 15.28 69.069 16.624 69.069 18.664ZM74.481 18.688C74.481 20.116 73.509 20.92 72.477 20.92C71.457 20.92 70.473 20.092 70.473 18.664C70.473 17.236 71.457 16.468 72.477 16.468C73.509 16.468 74.481 17.272 74.481 18.688Z" fill="#ABABAF"/>
</svg>
