<svg width="43" height="43" viewBox="0 0 43 43" fill="none" xmlns="http://www.w3.org/2000/svg">
<rect width="43" height="43" rx="21.5" fill="#FF453A"/>
<path d="M21 10C19.965 10 18.2355 10.3975 16.608 10.84C14.943 11.29 13.2645 11.8225 12.2775 12.145C11.8648 12.2813 11.499 12.5312 11.222 12.8661C10.945 13.2009 10.768 13.6071 10.7115 14.038C9.81751 20.7535 11.892 25.7305 14.409 29.023C15.4764 30.4314 16.749 31.6717 18.1845 32.7025C18.7635 33.112 19.3005 33.4255 19.7565 33.64C20.1765 33.838 20.628 34 21 34C21.372 34 21.822 33.838 22.2435 33.64C22.7932 33.3728 23.3191 33.0592 23.8155 32.7025C25.251 31.6718 26.5237 30.4315 27.591 29.023C30.108 25.7305 32.1825 20.7535 31.2885 14.038C31.2321 13.6069 31.0552 13.2005 30.7782 12.8653C30.5012 12.5302 30.1353 12.28 29.7225 12.1435C28.2897 11.6737 26.8458 11.2386 25.392 10.8385C23.7645 10.399 22.035 10 21 10ZM19.281 17.719L21 19.4395L22.719 17.719C22.8598 17.5782 23.0508 17.4991 23.25 17.4991C23.4492 17.4991 23.6402 17.5782 23.781 17.719C23.9218 17.8598 24.001 18.0508 24.001 18.25C24.001 18.4492 23.9218 18.6402 23.781 18.781L22.0605 20.5L23.781 22.219C23.9218 22.3598 24.001 22.5508 24.001 22.75C24.001 22.9492 23.9218 23.1402 23.781 23.281C23.6402 23.4218 23.4492 23.5009 23.25 23.5009C23.0508 23.5009 22.8598 23.4218 22.719 23.281L21 21.5605L19.281 23.281C19.2113 23.3507 19.1285 23.406 19.0374 23.4438C18.9463 23.4815 18.8486 23.5009 18.75 23.5009C18.6514 23.5009 18.5537 23.4815 18.4626 23.4438C18.3715 23.406 18.2887 23.3507 18.219 23.281C18.1493 23.2113 18.094 23.1285 18.0562 23.0374C18.0185 22.9463 17.9991 22.8486 17.9991 22.75C17.9991 22.6514 18.0185 22.5537 18.0562 22.4626C18.094 22.3715 18.1493 22.2887 18.219 22.219L19.9395 20.5L18.219 18.781C18.1493 18.7113 18.094 18.6285 18.0562 18.5374C18.0185 18.4463 17.9991 18.3486 17.9991 18.25C17.9991 18.1514 18.0185 18.0537 18.0562 17.9626C18.094 17.8715 18.1493 17.7887 18.219 17.719C18.2887 17.6493 18.3715 17.594 18.4626 17.5562C18.5537 17.5185 18.6514 17.4991 18.75 17.4991C18.8486 17.4991 18.9463 17.5185 19.0374 17.5562C19.1285 17.594 19.2113 17.6493 19.281 17.719Z" fill="white"/>
</svg>
