<svg width="43" height="43" viewBox="0 0 43 43" fill="none" xmlns="http://www.w3.org/2000/svg">
<rect width="43" height="43" rx="21.5" fill="#0093DC"/>
<path fill-rule="evenodd" clip-rule="evenodd" d="M21 10C19.965 10 18.2355 10.3975 16.608 10.84C14.943 11.29 13.2645 11.8225 12.2775 12.145C11.8648 12.2813 11.499 12.5312 11.222 12.8661C10.945 13.2009 10.768 13.6071 10.7115 14.038C9.81751 20.7535 11.892 25.7305 14.409 29.023C15.4764 30.4314 16.749 31.6717 18.1845 32.7025C18.7635 33.112 19.3005 33.4255 19.7565 33.64C20.1765 33.838 20.628 34 21 34C21.372 34 21.822 33.838 22.2435 33.64C22.7932 33.3728 23.3191 33.0592 23.8155 32.7025C25.251 31.6718 26.5237 30.4315 27.591 29.023C30.108 25.7305 32.1825 20.7535 31.2885 14.038C31.2321 13.6069 31.0552 13.2005 30.7782 12.8653C30.5012 12.5302 30.1353 12.28 29.7225 12.1435C28.2897 11.6737 26.8458 11.2386 25.392 10.8385C23.7645 10.399 22.035 10 21 10ZM24.219 17.719C24.3598 17.5782 24.5508 17.4991 24.75 17.4991C24.9492 17.4991 25.1402 17.5782 25.281 17.719C25.4218 17.8598 25.501 18.0508 25.501 18.25C25.501 18.4492 25.4218 18.6402 25.281 18.781L20.781 23.281C20.7113 23.3508 20.6286 23.4063 20.5375 23.4441C20.4463 23.4819 20.3487 23.5013 20.25 23.5013C20.1514 23.5013 20.0537 23.4819 19.9626 23.4441C19.8714 23.4063 19.7887 23.3508 19.719 23.281L17.469 21.031C17.3993 20.9613 17.344 20.8785 17.3062 20.7874C17.2685 20.6963 17.2491 20.5986 17.2491 20.5C17.2491 20.4014 17.2685 20.3037 17.3062 20.2126C17.344 20.1215 17.3993 20.0387 17.469 19.969C17.5387 19.8993 17.6215 19.844 17.7126 19.8062C17.8037 19.7685 17.9014 19.7491 18 19.7491C18.0986 19.7491 18.1963 19.7685 18.2874 19.8062C18.3785 19.844 18.4613 19.8993 18.531 19.969L20.25 21.6895L24.219 17.719Z" fill="white"/>
</svg>
